<svg width="3506" height="708" viewBox="540 677 3506 708" fill="none" xmlns="http://www.w3.org/2000/svg" role="img" aria-label="Proton VPN">
<path d="M3338.29 799.062H3123.24V1265.37H3208.42V1149.29C3208.42 1138.01 3212.87 1127.12 3220.92 1119.16C3228.87 1111.2 3239.75 1106.65 3251.02 1106.65H3338.29C3378.99 1106.65 3417.99 1090.44 3446.67 1061.73C3475.44 1032.93 3491.53 993.885 3491.53 953.234C3491.63 933.05 3487.75 912.961 3480.08 894.294C3472.41 875.627 3461.15 858.57 3446.86 844.261C3432.56 829.953 3415.72 818.582 3397.07 810.812C3378.52 803.042 3358.55 799.062 3338.29 799.062ZM3405.4 952.002C3405.4 961.572 3403.51 971.048 3399.81 979.861C3396.12 988.673 3390.82 996.728 3384.01 1003.46C3377.29 1010.18 3369.24 1015.58 3360.44 1019.19C3351.64 1022.88 3342.17 1024.68 3332.61 1024.68H3208.05V879.417H3332.61C3342.17 879.417 3351.64 881.312 3360.53 885.008C3369.34 888.703 3377.38 894.104 3384.1 900.832C3390.82 907.655 3396.22 915.709 3399.81 924.522C3403.41 933.429 3405.3 942.905 3405.21 952.476L3405.4 952.002Z" fill="#6D4AFF"/>
<path d="M2824.04 1263.66L2652.43 797.736H2749.35L2862.28 1131.19C2866.73 1143.13 2869.94 1155.45 2871.84 1168.05H2872.78C2874.2 1155.35 2877.42 1142.94 2882.34 1131.19L2995.64 797.736H3093.23L2920.77 1263.66H2824.04Z" fill="#6D4AFF"/>
<path d="M3523.43 1263.66V797.633H3598.11L3817.9 1086.65C3825.85 1096.6 3832.66 1107.3 3838.44 1118.67H3839.76C3838.25 1104.65 3837.59 1090.53 3837.68 1076.41V797.633H3925.71V1263.56H3851.03L3630.58 974.547C3622.82 964.502 3616 953.795 3610.13 942.519H3609.38C3610.61 956.543 3611.08 970.662 3610.8 984.781V1263.56H3523.43V1263.66Z" fill="#6D4AFF"/>
<path d="M660.227 1138.14V1258.07H743.965V1143.38C743.965 1132.25 748.338 1121.49 756.246 1113.63C764.062 1105.78 774.762 1101.29 785.834 1101.29H871.712C911.72 1101.29 950.147 1085.29 978.431 1056.76C1006.72 1028.32 1022.63 989.684 1022.63 949.459C1022.63 909.234 1006.72 870.599 978.431 842.068C950.147 813.629 911.72 797.633 871.619 797.633H660.227V947.495H743.965V876.867H866.036C885.017 876.867 903.16 884.444 916.558 897.915C929.956 911.386 937.493 929.627 937.493 948.711C937.493 967.794 929.956 986.036 916.558 999.507C903.16 1012.98 885.017 1020.55 866.036 1020.55H777.367C762.015 1020.55 746.756 1023.55 732.614 1029.54C718.378 1035.43 705.538 1044.13 694.652 1055.07C683.766 1066.02 675.206 1079.02 669.252 1093.24C663.297 1107.37 660.227 1122.71 660.227 1138.14Z" fill="#1B1340"/>
<path d="M1035.56 1258.07V1075.37C1035.56 1000.82 1078.82 941.508 1165.45 941.508C1179.31 941.32 1193.17 942.817 1206.76 946.091V1021.21C1196.9 1020.55 1188.43 1020.55 1184.43 1020.55C1138.56 1020.55 1118.83 1041.7 1118.83 1084.54V1258.07H1035.56Z" fill="#1B1340"/>
<path d="M1231.69 1103.16C1231.69 1011.48 1300.54 941.602 1396.38 941.602C1492.21 941.602 1561.06 1011.48 1561.06 1103.16C1561.06 1194.83 1492.21 1265.37 1396.38 1265.37C1300.54 1265.37 1231.69 1194.74 1231.69 1103.16ZM1479 1103.16C1479 1051.05 1444.2 1014.1 1396.38 1014.1C1348.46 1014.1 1313.75 1050.96 1313.75 1103.16C1313.75 1155.92 1348.55 1192.21 1396.38 1192.21C1444.29 1192.21 1479 1155.82 1479 1103.16Z" fill="#1B1340"/>
<path d="M1827.35 1103.16C1827.35 1011.48 1896.2 941.602 1992.03 941.602C2087.78 941.602 2156.63 1011.48 2156.63 1103.16C2156.63 1194.83 2087.78 1265.37 1992.03 1265.37C1896.2 1265.37 1827.35 1194.74 1827.35 1103.16ZM2074.56 1103.16C2074.56 1051.05 2039.77 1014.1 1991.94 1014.1C1944.12 1014.1 1909.32 1050.96 1909.32 1103.16C1909.32 1155.92 1944.12 1192.21 1991.94 1192.21C2039.77 1192.21 2074.56 1155.82 2074.56 1103.16Z" fill="#1B1340"/>
<path d="M2199.89 1258.07V1082.02C2199.89 1000.26 2251.72 941.509 2344.2 941.509C2436.03 941.509 2487.86 1000.16 2487.86 1082.02V1258.07H2405.24V1088.56C2405.24 1043.1 2384.86 1014.66 2344.2 1014.66C2303.54 1014.66 2283.17 1043.01 2283.17 1088.56V1258.07H2199.89Z" fill="#1B1340"/>
<path d="M1802.41 1014.75H1712.54V1130.19C1712.54 1170.41 1726.96 1188.84 1768.27 1188.84C1772.18 1188.84 1782.04 1188.84 1794.51 1188.19V1256.1C1777.48 1260.69 1762.41 1263.4 1745.94 1263.4C1676.44 1263.4 1629.17 1221.21 1629.17 1141.41V1014.75H1573.34V948.146H1587.3C1592.79 948.146 1598.28 947.024 1603.3 944.966C1608.42 942.814 1612.98 939.727 1616.89 935.798C1620.8 931.869 1623.87 927.285 1626.01 922.14C1628.15 916.995 1629.17 911.569 1629.17 906.05V843.28H1712.44V948.146H1802.32V1014.75H1802.41Z" fill="#1B1340"/>
</svg>
